<?xml version="1.0" encoding="utf-8"?>
<!-- Generator: Adobe Illustrator 24.0.2, SVG Export Plug-In . SVG Version: 6.00 Build 0)  -->
<svg version="1.1" id="Layer_1" xmlns="http://www.w3.org/2000/svg" xmlns:xlink="http://www.w3.org/1999/xlink" x="0px" y="0px"
	 viewBox="0 0 25 25" style="enable-background:new 0 0 25 25;" xml:space="preserve">
<style type="text/css">
	.st0{fill:#FFFFFF;}
	.st1{fill:#F16823;}
</style>
<title>ic</title>
<g>
	<path class="st0" d="M20.7,25H4.3C1.9,25,0,23.1,0,20.7V4.3C0,1.9,1.9,0,4.3,0h16.5C23.1,0,25,1.9,25,4.3v16.5
		C25,23.1,23.1,25,20.7,25z"/>
	<g id="Layer_2_1_">
		<g id="Layer_1-2">
			<path class="st1" d="M23,12.5c0.7,0,1.3,0,2,0V4.2C25,1.9,23.1,0,20.8,0H4.2C1.9,0,0,1.9,0,4.2v16.7C0,23.1,1.9,25,4.2,25h16.7
				c2.3,0,4.2-1.9,4.2-4.2v-3.9c-6.4-1.1-12.9,0.9-17.6,5.3C7.4,22.2,12.9,13.2,23,12.5z M6.2,1.5c6.5,0.5,12.5,4,16,9.6
				C15.6,10.5,9.7,7,6.2,1.5z"/>
		</g>
	</g>
</g>
</svg>
